<mxfile host="app.diagrams.net" agent="Mozilla/5.0 (Windows NT 10.0; Win64; x64) AppleWebKit/537.36 (KHTML, like Gecko) Chrome/136.0.0.0 Safari/537.36" version="27.0.9">
  <diagram name="Page-1" id="zEp_HXgDI0q-kbtI1OcQ">
    <mxGraphModel dx="1023" dy="970" grid="1" gridSize="10" guides="1" tooltips="1" connect="1" arrows="1" fold="1" page="1" pageScale="1" pageWidth="850" pageHeight="1100" math="0" shadow="0">
      <root>
        <mxCell id="0" />
        <mxCell id="1" parent="0" />
        <mxCell id="MbLNILye3q72oUf1cYj1-7" value="" style="group" parent="1" vertex="1" connectable="0">
          <mxGeometry x="360" y="50" width="120" height="80" as="geometry" />
        </mxCell>
        <mxCell id="MbLNILye3q72oUf1cYj1-2" value="N8N Personal Asisten" style="rounded=0;whiteSpace=wrap;html=1;" parent="MbLNILye3q72oUf1cYj1-7" vertex="1">
          <mxGeometry width="120" height="20" as="geometry" />
        </mxCell>
        <mxCell id="MbLNILye3q72oUf1cYj1-5" value="" style="rounded=0;whiteSpace=wrap;html=1;" parent="MbLNILye3q72oUf1cYj1-7" vertex="1">
          <mxGeometry y="20" width="120" height="60" as="geometry" />
        </mxCell>
        <mxCell id="xBlAhNk_IOZ5jmLlqa0C-2" value="" style="shape=image;verticalLabelPosition=bottom;labelBackgroundColor=default;verticalAlign=top;aspect=fixed;imageAspect=0;image=https://miro.medium.com/v2/resize:fit:1155/0*G-5F38rBStjlMNwd.png;" vertex="1" parent="MbLNILye3q72oUf1cYj1-7">
          <mxGeometry x="28" y="30.42" width="75" height="39.16" as="geometry" />
        </mxCell>
        <mxCell id="MbLNILye3q72oUf1cYj1-8" value="" style="group" parent="1" vertex="1" connectable="0">
          <mxGeometry x="680" y="50" width="120" height="80" as="geometry" />
        </mxCell>
        <mxCell id="MbLNILye3q72oUf1cYj1-3" value="Output" style="rounded=0;whiteSpace=wrap;html=1;" parent="MbLNILye3q72oUf1cYj1-8" vertex="1">
          <mxGeometry width="120" height="20" as="geometry" />
        </mxCell>
        <mxCell id="MbLNILye3q72oUf1cYj1-6" value="" style="rounded=0;whiteSpace=wrap;html=1;" parent="MbLNILye3q72oUf1cYj1-8" vertex="1">
          <mxGeometry y="20" width="120" height="60" as="geometry" />
        </mxCell>
        <mxCell id="xBlAhNk_IOZ5jmLlqa0C-3" value="" style="shape=image;verticalLabelPosition=bottom;labelBackgroundColor=default;verticalAlign=top;aspect=fixed;imageAspect=0;image=https://upload.wikimedia.org/wikipedia/commons/thumb/8/82/Telegram_logo.svg/2048px-Telegram_logo.svg.png;" vertex="1" parent="MbLNILye3q72oUf1cYj1-8">
          <mxGeometry x="40" y="30" width="40" height="40" as="geometry" />
        </mxCell>
        <mxCell id="MbLNILye3q72oUf1cYj1-9" value="" style="group" parent="1" vertex="1" connectable="0">
          <mxGeometry x="40" y="50" width="120" height="80" as="geometry" />
        </mxCell>
        <mxCell id="MbLNILye3q72oUf1cYj1-1" value="Input" style="rounded=0;whiteSpace=wrap;html=1;" parent="MbLNILye3q72oUf1cYj1-9" vertex="1">
          <mxGeometry width="120" height="20" as="geometry" />
        </mxCell>
        <mxCell id="MbLNILye3q72oUf1cYj1-4" value="" style="rounded=0;whiteSpace=wrap;html=1;" parent="MbLNILye3q72oUf1cYj1-9" vertex="1">
          <mxGeometry y="20" width="120" height="60" as="geometry" />
        </mxCell>
        <mxCell id="xBlAhNk_IOZ5jmLlqa0C-1" value="" style="shape=image;verticalLabelPosition=bottom;labelBackgroundColor=default;verticalAlign=top;aspect=fixed;imageAspect=0;image=https://upload.wikimedia.org/wikipedia/commons/thumb/8/82/Telegram_logo.svg/2048px-Telegram_logo.svg.png;" vertex="1" parent="MbLNILye3q72oUf1cYj1-9">
          <mxGeometry x="40" y="30" width="40" height="40" as="geometry" />
        </mxCell>
        <mxCell id="MbLNILye3q72oUf1cYj1-10" style="edgeStyle=orthogonalEdgeStyle;rounded=0;orthogonalLoop=1;jettySize=auto;html=1;entryX=0;entryY=0.5;entryDx=0;entryDy=0;" parent="1" source="MbLNILye3q72oUf1cYj1-4" target="MbLNILye3q72oUf1cYj1-5" edge="1">
          <mxGeometry relative="1" as="geometry" />
        </mxCell>
        <mxCell id="MbLNILye3q72oUf1cYj1-11" style="edgeStyle=orthogonalEdgeStyle;rounded=0;orthogonalLoop=1;jettySize=auto;html=1;entryX=0;entryY=0.5;entryDx=0;entryDy=0;" parent="1" source="MbLNILye3q72oUf1cYj1-5" target="MbLNILye3q72oUf1cYj1-6" edge="1">
          <mxGeometry relative="1" as="geometry" />
        </mxCell>
        <mxCell id="xBlAhNk_IOZ5jmLlqa0C-8" value="Chat" style="rounded=0;whiteSpace=wrap;html=1;" vertex="1" parent="1">
          <mxGeometry x="40" y="130" width="120" height="20" as="geometry" />
        </mxCell>
        <mxCell id="xBlAhNk_IOZ5jmLlqa0C-9" value="Voice Note" style="rounded=0;whiteSpace=wrap;html=1;" vertex="1" parent="1">
          <mxGeometry x="40" y="150" width="120" height="20" as="geometry" />
        </mxCell>
        <mxCell id="xBlAhNk_IOZ5jmLlqa0C-10" value="Video Note" style="rounded=0;whiteSpace=wrap;html=1;" vertex="1" parent="1">
          <mxGeometry x="40" y="170" width="120" height="20" as="geometry" />
        </mxCell>
        <mxCell id="xBlAhNk_IOZ5jmLlqa0C-11" value="Document" style="rounded=0;whiteSpace=wrap;html=1;" vertex="1" parent="1">
          <mxGeometry x="40" y="190" width="120" height="20" as="geometry" />
        </mxCell>
        <mxCell id="xBlAhNk_IOZ5jmLlqa0C-12" value="Picture" style="rounded=0;whiteSpace=wrap;html=1;" vertex="1" parent="1">
          <mxGeometry x="40" y="210" width="120" height="20" as="geometry" />
        </mxCell>
        <mxCell id="xBlAhNk_IOZ5jmLlqa0C-13" value="Chat" style="rounded=0;whiteSpace=wrap;html=1;" vertex="1" parent="1">
          <mxGeometry x="680" y="130" width="120" height="20" as="geometry" />
        </mxCell>
        <mxCell id="xBlAhNk_IOZ5jmLlqa0C-14" value="Voice Note" style="rounded=0;whiteSpace=wrap;html=1;" vertex="1" parent="1">
          <mxGeometry x="680" y="150" width="120" height="20" as="geometry" />
        </mxCell>
        <mxCell id="xBlAhNk_IOZ5jmLlqa0C-18" value="Administration" style="rounded=0;whiteSpace=wrap;html=1;" vertex="1" parent="1">
          <mxGeometry x="360" y="130" width="120" height="20" as="geometry" />
        </mxCell>
        <mxCell id="xBlAhNk_IOZ5jmLlqa0C-19" value="Communication" style="rounded=0;whiteSpace=wrap;html=1;" vertex="1" parent="1">
          <mxGeometry x="360" y="150" width="120" height="20" as="geometry" />
        </mxCell>
        <mxCell id="xBlAhNk_IOZ5jmLlqa0C-20" value="Time Management" style="rounded=0;whiteSpace=wrap;html=1;" vertex="1" parent="1">
          <mxGeometry x="360" y="170" width="120" height="20" as="geometry" />
        </mxCell>
        <mxCell id="xBlAhNk_IOZ5jmLlqa0C-22" value="Take A Job" style="rounded=0;whiteSpace=wrap;html=1;" vertex="1" parent="1">
          <mxGeometry x="360" y="190" width="120" height="20" as="geometry" />
        </mxCell>
        <mxCell id="xBlAhNk_IOZ5jmLlqa0C-26" value="" style="group" vertex="1" connectable="0" parent="1">
          <mxGeometry x="40" y="300" width="760" height="414.29" as="geometry" />
        </mxCell>
        <mxCell id="xBlAhNk_IOZ5jmLlqa0C-23" value="" style="rounded=0;whiteSpace=wrap;html=1;" vertex="1" parent="xBlAhNk_IOZ5jmLlqa0C-26">
          <mxGeometry width="760" height="414.29" as="geometry" />
        </mxCell>
        <mxCell id="xBlAhNk_IOZ5jmLlqa0C-25" value="Administration" style="text;html=1;align=center;verticalAlign=middle;whiteSpace=wrap;rounded=0;" vertex="1" parent="xBlAhNk_IOZ5jmLlqa0C-26">
          <mxGeometry x="335.29" width="89.41" height="30" as="geometry" />
        </mxCell>
        <mxCell id="xBlAhNk_IOZ5jmLlqa0C-27" value="Organizing Schedules and Meetings" style="rounded=0;whiteSpace=wrap;html=1;" vertex="1" parent="xBlAhNk_IOZ5jmLlqa0C-26">
          <mxGeometry x="20" y="50" width="120" height="60" as="geometry" />
        </mxCell>
        <mxCell id="xBlAhNk_IOZ5jmLlqa0C-28" value="Preparing Documents" style="rounded=0;whiteSpace=wrap;html=1;" vertex="1" parent="xBlAhNk_IOZ5jmLlqa0C-26">
          <mxGeometry x="320" y="50" width="120" height="60" as="geometry" />
        </mxCell>
        <mxCell id="xBlAhNk_IOZ5jmLlqa0C-29" value="Take Administration" style="rounded=0;whiteSpace=wrap;html=1;" vertex="1" parent="xBlAhNk_IOZ5jmLlqa0C-26">
          <mxGeometry x="600" y="50" width="120" height="60" as="geometry" />
        </mxCell>
        <mxCell id="xBlAhNk_IOZ5jmLlqa0C-30" value="Managing databases and archives" style="rounded=0;whiteSpace=wrap;html=1;" vertex="1" parent="xBlAhNk_IOZ5jmLlqa0C-26">
          <mxGeometry x="170" y="50" width="120" height="60" as="geometry" />
        </mxCell>
        <mxCell id="xBlAhNk_IOZ5jmLlqa0C-31" value="Managing finances" style="rounded=0;whiteSpace=wrap;html=1;" vertex="1" parent="xBlAhNk_IOZ5jmLlqa0C-26">
          <mxGeometry x="460" y="50" width="120" height="60" as="geometry" />
        </mxCell>
        <mxCell id="xBlAhNk_IOZ5jmLlqa0C-33" value="" style="group" vertex="1" connectable="0" parent="1">
          <mxGeometry x="40" y="763" width="760" height="414.29" as="geometry" />
        </mxCell>
        <mxCell id="xBlAhNk_IOZ5jmLlqa0C-34" value="" style="rounded=0;whiteSpace=wrap;html=1;" vertex="1" parent="xBlAhNk_IOZ5jmLlqa0C-33">
          <mxGeometry width="760" height="414.29" as="geometry" />
        </mxCell>
        <mxCell id="xBlAhNk_IOZ5jmLlqa0C-35" value="Communication" style="text;html=1;align=center;verticalAlign=middle;whiteSpace=wrap;rounded=0;" vertex="1" parent="xBlAhNk_IOZ5jmLlqa0C-33">
          <mxGeometry x="335.29" width="89.41" height="30" as="geometry" />
        </mxCell>
        <mxCell id="xBlAhNk_IOZ5jmLlqa0C-36" value="Answer Call and Email" style="rounded=0;whiteSpace=wrap;html=1;" vertex="1" parent="xBlAhNk_IOZ5jmLlqa0C-33">
          <mxGeometry x="20" y="50" width="120" height="60" as="geometry" />
        </mxCell>
        <mxCell id="xBlAhNk_IOZ5jmLlqa0C-37" value="Tell Message" style="rounded=0;whiteSpace=wrap;html=1;" vertex="1" parent="xBlAhNk_IOZ5jmLlqa0C-33">
          <mxGeometry x="400" y="50" width="120" height="60" as="geometry" />
        </mxCell>
        <mxCell id="xBlAhNk_IOZ5jmLlqa0C-39" value="Write Resume Notula" style="rounded=0;whiteSpace=wrap;html=1;" vertex="1" parent="xBlAhNk_IOZ5jmLlqa0C-33">
          <mxGeometry x="210" y="50" width="120" height="60" as="geometry" />
        </mxCell>
        <mxCell id="xBlAhNk_IOZ5jmLlqa0C-40" value="Communicate With Client" style="rounded=0;whiteSpace=wrap;html=1;" vertex="1" parent="xBlAhNk_IOZ5jmLlqa0C-33">
          <mxGeometry x="590" y="50" width="120" height="60" as="geometry" />
        </mxCell>
        <mxCell id="xBlAhNk_IOZ5jmLlqa0C-41" value="" style="group" vertex="1" connectable="0" parent="1">
          <mxGeometry x="45" y="1236" width="760" height="414.29" as="geometry" />
        </mxCell>
        <mxCell id="xBlAhNk_IOZ5jmLlqa0C-42" value="" style="rounded=0;whiteSpace=wrap;html=1;" vertex="1" parent="xBlAhNk_IOZ5jmLlqa0C-41">
          <mxGeometry width="760" height="414.29" as="geometry" />
        </mxCell>
        <mxCell id="xBlAhNk_IOZ5jmLlqa0C-43" value="Time Management" style="text;html=1;align=center;verticalAlign=middle;whiteSpace=wrap;rounded=0;" vertex="1" parent="xBlAhNk_IOZ5jmLlqa0C-41">
          <mxGeometry x="320" width="120" height="30" as="geometry" />
        </mxCell>
        <mxCell id="xBlAhNk_IOZ5jmLlqa0C-44" value="Task Monitoring" style="rounded=0;whiteSpace=wrap;html=1;" vertex="1" parent="xBlAhNk_IOZ5jmLlqa0C-41">
          <mxGeometry x="20" y="50" width="120" height="60" as="geometry" />
        </mxCell>
        <mxCell id="xBlAhNk_IOZ5jmLlqa0C-45" value="Managing Time Effectively" style="rounded=0;whiteSpace=wrap;html=1;" vertex="1" parent="xBlAhNk_IOZ5jmLlqa0C-41">
          <mxGeometry x="605" y="50" width="120" height="60" as="geometry" />
        </mxCell>
        <mxCell id="xBlAhNk_IOZ5jmLlqa0C-46" value="Help Set Priorities" style="rounded=0;whiteSpace=wrap;html=1;" vertex="1" parent="xBlAhNk_IOZ5jmLlqa0C-41">
          <mxGeometry x="315" y="50" width="120" height="60" as="geometry" />
        </mxCell>
      </root>
    </mxGraphModel>
  </diagram>
</mxfile>
